<svg xmlns="http://www.w3.org/2000/svg" xmlns:xlink="http://www.w3.org/1999/xlink" width="579.094" height="343.629" viewBox="0 0 579.094 343.629">
  <defs>
    <clipPath id="clip-path">
      <path id="path26" d="M753.4-552.709a11.235,11.235,0,0,0-11.2-11.2H596.211L604.794-546H738.283v275.374l.329,3.871,5.661,11.814h9.13Z" transform="translate(-596.211 563.911)"/>
    </clipPath>
    <linearGradient id="linear-gradient" x1="-2.329" y1="1.121" x2="-2.328" y2="1.121" gradientUnits="objectBoundingBox">
      <stop offset="0" stop-color="#231f20"/>
      <stop offset="0.799" stop-color="#231f20"/>
      <stop offset="1" stop-color="#a7a5a6"/>
    </linearGradient>
    <clipPath id="clip-path-2">
      <path id="path48" d="M406.431-60.712V-54.9h79.1v-5.808Z" transform="translate(-406.431 60.712)"/>
    </clipPath>
    <radialGradient id="radial-gradient" cx="0.802" cy="1.241" r="8.425" gradientTransform="translate(-2.923 8.656) scale(0.073 0.571)" gradientUnits="objectBoundingBox">
      <stop offset="0" stop-color="#d1d3d6"/>
      <stop offset="0.632" stop-color="#d1d3d6"/>
      <stop offset="0.791" stop-color="#939ba2"/>
      <stop offset="0.821" stop-color="#939ba2"/>
      <stop offset="1" stop-color="#050301"/>
    </radialGradient>
    <clipPath id="clip-path-3">
      <path id="path72" d="M552.512-33.655H25.981C14.176-35.142,5.019-39.418,0-40.909H578.494a57,57,0,0,1-25.981,7.254Z" transform="translate(0 40.909)"/>
    </clipPath>
    <linearGradient id="linear-gradient-2" y1="3.463" x2="0" y2="3.463" gradientUnits="objectBoundingBox">
      <stop offset="0" stop-color="#231f20"/>
      <stop offset="0.6" stop-color="#7a848d"/>
      <stop offset="1" stop-color="#a3a9af"/>
    </linearGradient>
    <clipPath id="clip-path-4">
      <path id="path92" d="M0-49.095H578.494V-60.712H328.507v2.49c0,1.712-1.948,3.112-4.331,3.112H254.029c-2.382,0-4.331-1.4-4.331-3.112v-2.49H0v11.617Z" transform="translate(0 60.712)"/>
    </clipPath>
    <clipPath id="clip-path-5">
      <path id="path98" d="M0-49.095H578.494V-60.712H328.507v2.49c0,1.712-1.948,3.112-4.331,3.112H254.029c-2.382,0-4.331-1.4-4.331-3.112v-2.49H0v11.617" transform="translate(0 60.712)"/>
    </clipPath>
    <clipPath id="clip-path-6">
      <path id="path342" d="M911.416-281.719H891.638l5.351,23.1h21.986v96.307l3.7,15.183V-269.979c0-6.693-4.84-11.741-11.258-11.741Z" transform="translate(-891.638 281.72)"/>
    </clipPath>
    <linearGradient id="linear-gradient-3" x1="-17.64" y1="1.285" x2="-17.637" y2="1.285" gradientUnits="objectBoundingBox">
      <stop offset="0" stop-color="#231f20"/>
      <stop offset="0.799" stop-color="#231f20"/>
      <stop offset="1" stop-color="#918f90"/>
    </linearGradient>
  </defs>
  <g id="g10" transform="translate(425 771.766)">
    <g id="g12">
      <path id="path14" d="M88.469-253.405V-552.72a12.765,12.765,0,0,1,12.75-12.752H545.571a12.765,12.765,0,0,1,12.75,12.752v299.315H88.469" transform="translate(-459.148 -206.101)" fill="#171316"/>
      <path id="path16" d="M88.54-253.72H558.005V-552.842A12.57,12.57,0,0,0,545.45-565.4H101.1A12.571,12.571,0,0,0,88.54-552.842Zm469.852.387H88.153V-552.842A12.959,12.959,0,0,1,101.1-565.787H545.45a12.958,12.958,0,0,1,12.942,12.945v299.509" transform="translate(-459.026 -205.98)" fill="#a8aaaf"/>
      <path id="path18" d="M546.545-562.948H102.193a11.235,11.235,0,0,0-11.2,11.2V-253.98H557.746V-551.746a11.234,11.234,0,0,0-11.2-11.2" transform="translate(-460.122 -207.076)" fill="#0e0c0a"/>
      <path id="path20" d="M551.871-258.405H114.941V-533.78h436.93v275.375" transform="translate(-469.367 -218.334)" fill="#fff"/>
      <g id="g22" transform="translate(-58.922 -770.615)">
        <g id="g24" transform="translate(0 0)" clip-path="url(#clip-path)">
          <path id="path38" d="M753.4-552.709a11.235,11.235,0,0,0-11.2-11.2H596.211L604.794-546H738.283v275.374l.329,3.871,5.661,11.814h9.13V-552.709" transform="translate(-596.211 563.911)" fill="url(#linear-gradient)"/>
        </g>
      </g>
      <path id="path40" d="M471.78-548.325a1.885,1.885,0,0,1-1.885,1.885,1.885,1.885,0,0,1-1.885-1.885,1.885,1.885,0,0,1,1.885-1.885,1.885,1.885,0,0,1,1.885,1.885" transform="translate(-605.648 -211.992)" fill="#434549"/>
      <path id="path42" d="M468.01-548.518a1.646,1.646,0,0,0,.086.5,1.539,1.539,0,0,0,1.258.647,1.515,1.515,0,0,0,1.531-1.5,1.49,1.49,0,0,0-.8-1.309,1.785,1.785,0,0,0-.345-.034,1.712,1.712,0,0,0-1.73,1.693" transform="translate(-605.648 -211.992)" fill="#0e0c0a"/>
      <g id="g44" transform="translate(-175.448 -461.647)">
        <g id="g46" transform="translate(0 0)" clip-path="url(#clip-path-2)">
          <path id="path64" d="M406.431-60.712V-54.9h79.1v-5.808h-79.1" transform="translate(-406.431 60.712)" fill="url(#radial-gradient)"/>
        </g>
      </g>
      <path id="path66" d="M485.518-51.563H406.431v-.309h79.087v.309" transform="translate(-581.879 -404.347)" fill="#f5f5f4"/>
      <g id="g68" transform="translate(-425 -449.488)">
        <g id="g70" transform="translate(0 0)" clip-path="url(#clip-path-3)">
          <path id="path84" d="M552.512-33.655H25.981C14.176-35.142,5.019-39.418,0-40.909H578.494a57,57,0,0,1-25.981,7.254" transform="translate(0 40.909)" fill="url(#linear-gradient-2)"/>
        </g>
      </g>
      <path id="path86" d="M578.494-41.792H0v.542H578.494v-.542" transform="translate(-425 -408.238)" fill="#8f959c"/>
      <g id="g88" transform="translate(-425 -461.647)">
        <g id="g90" transform="translate(0 0)" clip-path="url(#clip-path-4)">
          <g id="g96" clip-path="url(#clip-path-5)">
            <g id="g102" transform="translate(0 -0.009)">
              <path id="path104" d="M10448.8,11177.236v-5.816h.979c0,1.941-.01,3.875-.01,5.816h-.971Z" transform="translate(-10448.801 -11165.615)" fill="#4f5259"/>
              <path id="path106" d="M10450.389,11177.236c0-1.941.008-3.875.008-5.816h.777c-.01,1.941-.026,3.875-.026,5.816Z" transform="translate(-10449.414 -11165.615)" fill="#6b6b71"/>
              <path id="path108" d="M10451.614,11177.236c0-1.941.018-3.875.027-5.816h.626c-.018,1.941-.045,3.875-.045,5.816Z" transform="translate(-10449.887 -11165.615)" fill="#89868a"/>
              <path id="path110" d="M10452.614,11177.236c0-1.941.027-3.875.045-5.816h.547c-.026,1.941-.044,3.875-.054,5.816Z" transform="translate(-10450.272 -11165.615)" fill="#a5a2a4"/>
              <path id="path112" d="M10453.48,11177.236c.01-1.941.027-3.875.054-5.816h.557c-.036,1.941-.062,3.875-.062,5.816h-.547Z" transform="translate(-10450.607 -11165.615)" fill="#bebbbd"/>
              <path id="path114" d="M10454.374,11177.236c0-1.941.026-3.875.062-5.816h.627c-.044,1.941-.079,3.875-.079,5.816h-.61Z" transform="translate(-10450.951 -11165.615)" fill="#d2d2d3"/>
              <path id="path116" d="M10455.375,11177.236c0-1.941.035-3.875.079-5.816h.769c-.045,1.941-.088,3.875-.088,5.816Z" transform="translate(-10451.338 -11165.615)" fill="#e2e2e3"/>
              <path id="path118" d="M10456.6,11177.236c0-1.941.045-3.875.089-5.816h.988c-.054,1.941-.1,3.875-.105,5.816Z" transform="translate(-10451.812 -11165.615)" fill="#ececed"/>
              <path id="path120" d="M10458.188,11177.236c.01-1.941.054-3.875.107-5.816h.847c-.054,1.941-.106,3.875-.106,5.816Z" transform="translate(-10452.424 -11165.615)" fill="#eff1f1"/>
              <path id="path122" d="M10459.574,11177.236c0-1.941.054-3.875.106-5.816h1.042c-.053,1.941-.105,3.875-.115,5.816Z" transform="translate(-10452.959 -11165.615)" fill="#e9eaeb"/>
              <path id="path124" d="M10461.256,11177.236c.008-1.941.061-3.875.113-5.816h2.454c-.044,1.941-.106,3.875-.114,5.816Z" transform="translate(-10453.609 -11165.615)" fill="#dad9da"/>
              <path id="path126" d="M10465.256,11177.236c.008-1.941.069-3.875.113-5.816h2.666c-.053,1.941-.123,3.875-.123,5.816Z" transform="translate(-10455.153 -11165.615)" fill="#aeaeb2"/>
              <path id="path128" d="M10469.574,11177.236c0-1.941.07-3.875.124-5.816h1.288c-.053,1.941-.123,3.875-.132,5.816Z" transform="translate(-10456.819 -11165.615)" fill="#868890"/>
              <path id="path130" d="M10471.654,11177.236c.009-1.941.079-3.875.132-5.816h1.191c-.053,1.941-.124,3.875-.132,5.816Z" transform="translate(-10457.623 -11165.615)" fill="#7a7e87"/>
              <path id="path132" d="M10473.6,11177.236c.01-1.941.08-3.875.134-5.816h1.667c-.053,1.941-.132,3.875-.141,5.816Z" transform="translate(-10458.373 -11165.615)" fill="#767b84"/>
              <path id="path134" d="M10476.309,11177.236c.008-1.941.088-3.875.141-5.816h2.2c-.053,1.941-.132,3.875-.141,5.816Z" transform="translate(-10459.419 -11165.615)" fill="#797e86"/>
              <path id="path136" d="M10479.882,11177.236c.009-1.941.089-3.875.141-5.816h5.217c-.053,1.941-.141,3.875-.141,5.816Z" transform="translate(-10460.798 -11165.615)" fill="#83878e"/>
              <path id="path138" d="M10488.375,11177.236c0-1.941.088-3.875.141-5.816h4.986c-.053,1.941-.148,3.875-.148,5.816Z" transform="translate(-10464.077 -11165.615)" fill="#a5a5aa"/>
              <path id="path140" d="M10496.48,11177.236c0-1.941.1-3.875.15-5.816h1.916c-.055,1.941-.16,3.875-.16,5.816Z" transform="translate(-10467.205 -11165.615)" fill="#c9c9cc"/>
              <path id="path142" d="M10499.588,11177.236c0-1.941.105-3.875.159-5.816H10501c-.053,1.941-.158,3.875-.168,5.816Z" transform="translate(-10468.404 -11165.615)" fill="#d6d7d9"/>
              <path id="path144" d="M10501.614,11177.236h217.159c-.036-1.941-.062-3.875-.071-5.816h-216.92C10501.729,11173.361,10501.624,11175.295,10501.614,11177.236Z" transform="translate(-10469.187 -11165.615)" fill="#dbdcde"/>
              <path id="path146" d="M10855.25,11177.236h1.959c-.177-1.527-.326-3.045-.469-4.572q-.779-.623-1.562-1.244c.009,1.941.035,3.875.07,5.816Z" transform="translate(-10605.659 -11165.615)" fill="#dbdcde"/>
              <path id="path148" d="M10858.186,11178.019h5.729c-.256-1.007-.5-2-.74-3.009a9.544,9.544,0,0,1-5.457-1.563C10857.859,11174.974,10858.009,11176.492,10858.186,11178.019Z" transform="translate(-10606.64 -11166.397)" fill="#dbdcde"/>
              <path id="path150" d="M10867.347,11179h63.6c.265-1.007.512-2,.795-3.01h-65.137C10866.844,11177,10867.092,11178,10867.347,11179Z" transform="translate(-10610.07 -11167.38)" fill="#dbdcde"/>
              <path id="path152" d="M10971.4,11178.019h5.73c.176-1.526.334-3.045.52-4.572a9.54,9.54,0,0,1-5.455,1.563C10971.912,11176.016,10971.665,11177.012,10971.4,11178.019Z" transform="translate(-10650.521 -11166.397)" fill="#dbdcde"/>
              <path id="path154" d="M10980.734,11177.236h1.959c.035-1.941.07-3.875.125-5.816l-1.563,1.244C10981.07,11174.191,10980.91,11175.709,10980.734,11177.236Z" transform="translate(-10654.124 -11165.615)" fill="#dbdcde"/>
              <path id="path156" d="M10983.919,11177.236h217.37c-.009-1.941-.1-3.875-.107-5.816h-217.141c-.054,1.941-.088,3.875-.124,5.816Z" transform="translate(-10655.352 -11165.615)" fill="#dbdcde"/>
              <path id="path158" d="M11337.865,11177.236c-.008-1.941-.1-3.875-.105-5.816h1.227c.01,1.941.1,3.875.1,5.816Z" transform="translate(-10791.933 -11165.615)" fill="#dbdcde"/>
              <path id="path160" d="M11339.859,11177.236c0-1.941-.088-3.875-.1-5.816h1.7c.009,1.941.1,3.875.1,5.816Z" transform="translate(-10792.706 -11165.615)" fill="#d6d7d9"/>
              <path id="path162" d="M11342.632,11177.236c0-1.941-.089-3.875-.1-5.816h4.44c0,1.941.079,3.875.087,5.816Z" transform="translate(-10793.775 -11165.615)" fill="#c9c9cc"/>
              <path id="path164" d="M11349.863,11177.236c-.008-1.941-.088-3.875-.088-5.816h5.111c.01,1.941.079,3.875.079,5.816Z" transform="translate(-10796.57 -11165.615)" fill="#a5a5aa"/>
              <path id="path166" d="M11358.176,11177.236c0-1.941-.07-3.875-.078-5.816h2.551c.009,1.941.07,3.875.079,5.816Z" transform="translate(-10799.783 -11165.615)" fill="#83878e"/>
              <path id="path168" d="M11362.322,11177.236c-.008-1.941-.07-3.875-.078-5.816h2.41c.008,1.941.07,3.875.07,5.816Z" transform="translate(-10801.384 -11165.615)" fill="#797e86"/>
              <path id="path170" d="M11366.25,11177.236c0-1.941-.062-3.875-.07-5.816h1.429c0,1.941.063,3.875.063,5.816Z" transform="translate(-10802.902 -11165.615)" fill="#767b84"/>
              <path id="path172" d="M11368.561,11177.236c0-1.941-.062-3.875-.062-5.816h1.367c0,1.941.063,3.875.063,5.816h-1.369Z" transform="translate(-10803.797 -11165.615)" fill="#7a7e87"/>
              <path id="path174" d="M11370.787,11177.236c0-1.941-.062-3.875-.062-5.816h2.508c0,1.941.054,3.875.054,5.816Z" transform="translate(-10804.656 -11165.615)" fill="#868890"/>
              <path id="path176" d="M11374.872,11177.236c0-1.941-.054-3.875-.054-5.816h2.075c0,1.941.054,3.875.054,5.816Z" transform="translate(-10806.236 -11165.615)" fill="#aeaeb2"/>
              <path id="path178" d="M11378.246,11177.236c0-1.941-.053-3.875-.053-5.816h.838c0,1.941.044,3.875.044,5.816Z" transform="translate(-10807.54 -11165.615)" fill="#dad9da"/>
              <path id="path180" d="M11379.6,11177.236c0-1.941-.045-3.875-.045-5.816h.68c0,1.941.043,3.875.043,5.816Z" transform="translate(-10808.065 -11165.615)" fill="#e9eaeb"/>
              <path id="path182" d="M11380.705,11177.236c0-1.941-.044-3.875-.044-5.816h1.042c0,1.941.043,3.875.043,5.816Z" transform="translate(-10808.491 -11165.615)" fill="#eff1f1"/>
              <path id="path184" d="M11382.411,11177.236c0-1.941-.045-3.875-.045-5.816h.83c0,1.941.035,3.875.035,5.816Z" transform="translate(-10809.149 -11165.615)" fill="#ececed"/>
              <path id="path186" d="M11383.75,11177.236c0-1.941-.035-3.875-.035-5.816h.679c0,1.941.026,3.875.026,5.816Z" transform="translate(-10809.671 -11165.615)" fill="#e2e2e3"/>
              <path id="path188" d="M11384.85,11177.236c0-1.941-.027-3.875-.027-5.816h.609c0,1.941.02,3.875.02,5.816Z" transform="translate(-10810.098 -11165.615)" fill="#d2d2d3"/>
              <path id="path190" d="M11385.828,11177.236c0-1.941-.02-3.875-.02-5.816h.609c0,1.941.02,3.875.02,5.816Z" transform="translate(-10810.479 -11165.615)" fill="#bebbbd"/>
              <path id="path192" d="M11386.828,11177.236c0-1.941-.02-3.875-.02-5.816h.68c0,1.941.009,3.875.009,5.816h-.671Z" transform="translate(-10810.864 -11165.615)" fill="#a5a2a4"/>
              <path id="path194" d="M11387.913,11177.236c0-1.941-.009-3.875-.009-5.816h.821c0,1.941.009,3.875.009,5.816Z" transform="translate(-10811.287 -11165.615)" fill="#89868a"/>
              <path id="path196" d="M11389.26,11177.236c0-1.941-.008-3.875-.008-5.816h1.041v5.816Z" transform="translate(-10811.808 -11165.615)" fill="#6b6b71"/>
              <path id="path198" d="M10448.8,11167.767v-5.8h1q0,2.9-.018,5.8h-.98Z" transform="translate(-10448.801 -11161.966)" fill="#4f5259"/>
              <path id="path200" d="M10450.4,11167.767c.01-1.933.02-3.865.02-5.8h.785q-.015,2.9-.027,5.8h-.776Z" transform="translate(-10449.418 -11161.966)" fill="#6b6b71"/>
              <path id="path202" d="M10451.668,11167.767q.015-2.9.026-5.8h.636c0,1.935-.026,3.867-.035,5.8Z" transform="translate(-10449.907 -11161.966)" fill="#89868a"/>
              <path id="path204" d="M10452.681,11167.767c.009-1.933.035-3.865.035-5.8h.565c0,1.935-.026,3.867-.054,5.8Z" transform="translate(-10450.299 -11161.966)" fill="#a5a2a4"/>
              <path id="path206" d="M10453.574,11167.767c.027-1.933.054-3.865.054-5.8h.563c0,1.935-.025,3.867-.061,5.8h-.556Z" transform="translate(-10450.644 -11161.966)" fill="#bebbbd"/>
              <path id="path208" d="M10454.48,11167.767c.036-1.933.062-3.865.062-5.8h.636c0,1.935-.035,3.867-.069,5.8Z" transform="translate(-10450.993 -11161.966)" fill="#d2d2d3"/>
              <path id="path210" d="M10455.494,11167.767c.035-1.933.071-3.865.071-5.8h.785c0,1.935-.044,3.867-.089,5.8Z" transform="translate(-10451.385 -11161.966)" fill="#e2e2e3"/>
              <path id="path212" d="M10456.747,11167.767c.045-1.933.09-3.865.09-5.8h1c0,1.935-.043,3.867-.1,5.8Z" transform="translate(-10451.868 -11161.966)" fill="#ececed"/>
              <path id="path214" d="M10458.361,11167.767c.053-1.933.1-3.865.1-5.8h.865c-.01,1.935-.062,3.867-.115,5.8Z" transform="translate(-10452.491 -11161.966)" fill="#eff1f1"/>
              <path id="path216" d="M10459.748,11167.767c.053-1.933.105-3.865.115-5.8h1.05c-.009,1.935-.079,3.867-.124,5.8Z" transform="translate(-10453.027 -11161.966)" fill="#e9eaeb"/>
              <path id="path218" d="M10461.441,11167.767c.045-1.933.115-3.865.123-5.8h2.49c-.027,1.935-.105,3.867-.16,5.8Z" transform="translate(-10453.68 -11161.966)" fill="#dad9da"/>
              <path id="path220" d="M10465.44,11167.767c.054-1.933.133-3.865.159-5.8h2.684c-.035,1.935-.123,3.867-.177,5.8Z" transform="translate(-10455.224 -11161.966)" fill="#aeaeb2"/>
              <path id="path222" d="M10469.774,11167.767c.053-1.933.142-3.865.177-5.8h1.307c-.044,1.935-.15,3.867-.194,5.8Z" transform="translate(-10456.896 -11161.966)" fill="#868890"/>
              <path id="path224" d="M10471.882,11167.767c.044-1.933.149-3.865.194-5.8h1.209c-.044,1.935-.159,3.867-.212,5.8Z" transform="translate(-10457.71 -11161.966)" fill="#7a7e87"/>
              <path id="path226" d="M10473.813,11167.767c.054-1.933.168-3.865.213-5.8h1.677c-.044,1.935-.167,3.867-.221,5.8h-1.668Z" transform="translate(-10458.455 -11161.966)" fill="#767b84"/>
              <path id="path228" d="M10476.534,11167.767c.054-1.933.177-3.865.22-5.8h2.217c-.053,1.935-.186,3.867-.238,5.8Z" transform="translate(-10459.506 -11161.966)" fill="#797e86"/>
              <path id="path230" d="M10480.107,11167.767c.054-1.933.186-3.865.238-5.8h5.252c-.07,1.935-.211,3.867-.272,5.8Z" transform="translate(-10460.885 -11161.966)" fill="#83878e"/>
              <path id="path232" d="M10488.614,11167.767c.062-1.933.2-3.865.273-5.8h5.022c-.1,1.935-.246,3.867-.309,5.8Z" transform="translate(-10464.169 -11161.966)" fill="#a5a5aa"/>
              <path id="path234" d="M10496.734,11167.767c.062-1.933.211-3.865.309-5.8h1.924c-.1,1.935-.265,3.867-.317,5.8Z" transform="translate(-10467.304 -11161.966)" fill="#c9c9cc"/>
              <path id="path236" d="M10499.854,11167.767c.053-1.933.221-3.865.317-5.8h1.271c-.105,1.935-.282,3.867-.336,5.8h-1.252Z" transform="translate(-10468.507 -11161.966)" fill="#d6d7d9"/>
              <path id="path238" d="M10501.895,11167.767h216.92c.079-1.933.133-3.865.177-5.8h-216.762C10502.123,11163.9,10501.947,11165.834,10501.895,11167.767Z" transform="translate(-10469.295 -11161.966)" fill="#dbdcde"/>
              <path id="path240" d="M10855.174,11167.767l1.563,1.245c-.441-1.519-.909-3.037-1.387-4.554v-2.491C10855.307,11163.9,10855.253,11165.834,10855.174,11167.767Z" transform="translate(-10605.658 -11161.966)" fill="#dbdcde"/>
              <path id="path242" d="M10856.85,11170.576a9.543,9.543,0,0,0,5.455,1.561c-.812-1.006-1.65-2-2.518-3.01-2.383,0-4.324-1.395-4.324-3.106C10855.939,11167.539,10856.408,11169.057,10856.85,11170.576Z" transform="translate(-10605.77 -11163.531)" fill="#dbdcde"/>
              <path id="path244" d="M10865.032,11174.094h65.137c.874-1.008,1.687-2,2.5-3.011h-70.148c.865,1.007,1.7,2,2.516,3.011Z" transform="translate(-10608.493 -11165.485)" fill="#dbdcde"/>
              <path id="path246" d="M10972.693,11172.141a9.537,9.537,0,0,0,5.454-1.562c.5-1.518.936-3.037,1.376-4.555,0,1.713-1.949,3.106-4.334,3.106-.812,1.007-1.623,2-2.5,3.011Z" transform="translate(-10651.019 -11163.532)" fill="#dbdcde"/>
              <path id="path248" d="M10981.574,11169.011l1.562-1.245c-.019-1.934-.105-3.866-.185-5.8v2.489C10982.51,11165.975,10982.076,11167.492,10981.574,11169.011Z" transform="translate(-10654.448 -11161.966)" fill="#dbdcde"/>
              <path id="path250" d="M10984,11167.767h217.143c-.01-1.933-.23-3.865-.4-5.8h-216.929c.079,1.935.168,3.867.186,5.8Z" transform="translate(-10655.313 -11161.966)" fill="#dbdcde"/>
              <path id="path252" d="M11337.522,11167.767c-.009-1.933-.229-3.865-.4-5.8h1.244c.16,1.935.371,3.867.381,5.8Z" transform="translate(-10791.688 -11161.966)" fill="#dbdcde"/>
              <path id="path254" d="M11339.52,11167.767c-.008-1.933-.221-3.865-.38-5.8h1.722c.159,1.935.354,3.867.362,5.8Z" transform="translate(-10792.465 -11161.966)" fill="#d6d7d9"/>
              <path id="path256" d="M11342.306,11167.767c-.01-1.933-.2-3.865-.362-5.8h4.475c.133,1.935.317,3.867.326,5.8h-4.44Z" transform="translate(-10793.548 -11161.966)" fill="#c9c9cc"/>
              <path id="path258" d="M11349.568,11167.767c-.01-1.933-.2-3.865-.326-5.8h5.146c.114,1.935.282,3.867.29,5.8Z" transform="translate(-10796.364 -11161.966)" fill="#a5a5aa"/>
              <path id="path260" d="M11357.91,11167.767c-.01-1.933-.178-3.865-.291-5.8h2.568c.105,1.935.273,3.867.273,5.8Z" transform="translate(-10799.599 -11161.966)" fill="#83878e"/>
              <path id="path262" d="M11362.08,11167.767c0-1.933-.168-3.865-.273-5.8h2.428c.1,1.935.256,3.867.256,5.8Z" transform="translate(-10801.214 -11161.966)" fill="#797e86"/>
              <path id="path264" d="M11366.012,11167.767c0-1.933-.158-3.865-.256-5.8h1.439c.1,1.935.238,3.867.247,5.8Z" transform="translate(-10802.738 -11161.966)" fill="#767b84"/>
              <path id="path266" d="M11368.352,11167.767c-.01-1.933-.15-3.865-.248-5.8h1.377c.1,1.935.23,3.867.238,5.8Z" transform="translate(-10803.645 -11161.966)" fill="#7a7e87"/>
              <path id="path268" d="M11370.584,11167.767c-.01-1.933-.143-3.865-.238-5.8h2.523c.089,1.935.213,3.867.221,5.8Z" transform="translate(-10804.51 -11161.966)" fill="#868890"/>
              <path id="path270" d="M11374.673,11167.767c-.009-1.933-.132-3.865-.22-5.8h2.1c.071,1.935.187,3.867.2,5.8Z" transform="translate(-10806.096 -11161.966)" fill="#aeaeb2"/>
              <path id="path272" d="M11378.078,11167.767c-.01-1.933-.125-3.865-.2-5.8h.849c.069,1.935.176,3.867.185,5.8Z" transform="translate(-10807.419 -11161.966)" fill="#dad9da"/>
              <path id="path274" d="M11379.443,11167.767c-.01-1.933-.115-3.865-.187-5.8h.7c.069,1.935.167,3.867.167,5.8Z" transform="translate(-10807.949 -11161.966)" fill="#e9eaeb"/>
              <path id="path276" d="M11380.56,11167.767c0-1.933-.1-3.865-.168-5.8h1.06c.07,1.935.15,3.867.15,5.8Z" transform="translate(-10808.388 -11161.966)" fill="#eff1f1"/>
              <path id="path278" d="M11382.265,11167.767c0-1.933-.078-3.865-.149-5.8h.847c.062,1.935.124,3.867.132,5.8Z" transform="translate(-10809.054 -11161.966)" fill="#ececed"/>
              <path id="path280" d="M11383.635,11167.767c-.01-1.933-.07-3.865-.133-5.8h.706c.044,1.935.106,3.867.106,5.8Z" transform="translate(-10809.588 -11161.966)" fill="#e2e2e3"/>
              <path id="path282" d="M11384.758,11167.767c0-1.933-.061-3.865-.105-5.8h.628c.034,1.935.087,3.867.087,5.8Z" transform="translate(-10810.032 -11161.966)" fill="#d2d2d3"/>
              <path id="path284" d="M11385.756,11167.767c0-1.933-.053-3.865-.088-5.8h.627c.027,1.935.07,3.867.07,5.8Z" transform="translate(-10810.424 -11161.966)" fill="#bebbbd"/>
              <path id="path286" d="M11386.754,11167.767c0-1.933-.044-3.865-.07-5.8h.707c.008,1.935.043,3.867.043,5.8Z" transform="translate(-10810.816 -11161.966)" fill="#a5a2a4"/>
              <path id="path288" d="M11387.879,11167.767c0-1.933-.036-3.865-.044-5.8h.847c0,1.935.019,3.867.019,5.8h-.82Z" transform="translate(-10811.261 -11161.966)" fill="#89868a"/>
              <path id="path290" d="M11389.24,11167.767c0-1.933-.018-3.865-.018-5.8h1.059v5.8Z" transform="translate(-10811.797 -11161.966)" fill="#6b6b71"/>
            </g>
          </g>
        </g>
      </g>
      <path id="path328" d="M892.574-125.165a12.294,12.294,0,0,1-12.213,12.3H824.355a12.294,12.294,0,0,1-12.213-12.3V-270.331a12.294,12.294,0,0,1,12.213-12.3h56.006a12.294,12.294,0,0,1,12.213,12.3v145.167" transform="translate(-738.481 -315.275)" fill="#0f0c0a"/>
      <path id="path330" d="M891.21-121.2H821.1V-243.566H891.21V-121.2" transform="translate(-741.937 -330.354)" fill="#fff"/>
      <path id="path332" d="M880.522-258.8a1.142,1.142,0,0,1-1.257.959H867.6a1.142,1.142,0,0,1-1.257-.959,1.142,1.142,0,0,1,1.257-.96h11.668a1.142,1.142,0,0,1,1.257.96" transform="translate(-759.401 -324.105)" fill="#43454a"/>
      <path id="path334" d="M878.577-268.522a1.53,1.53,0,0,1-1.524,1.536,1.53,1.53,0,0,1-1.524-1.536,1.53,1.53,0,0,1,1.524-1.535,1.529,1.529,0,0,1,1.524,1.535" transform="translate(-762.947 -320.129)" fill="#43454a"/>
      <path id="path336" d="M875.529-268.522a1.52,1.52,0,0,0,.076.455,1.343,1.343,0,0,0,1.108.586,1.354,1.354,0,0,0,1.349-1.359,1.356,1.356,0,0,0-.7-1.187,1.556,1.556,0,0,0-.3-.03,1.53,1.53,0,0,0-1.524,1.535" transform="translate(-762.947 -320.129)" fill="#0f0c0a"/>
      <g id="g338" transform="translate(122.472 -597.347)">
        <g id="g340" transform="translate(0 0)" clip-path="url(#clip-path-6)">
          <path id="path354" d="M911.416-281.719H891.638l5.351,23.1h21.986v96.307l3.7,15.183V-269.979c0-6.693-4.84-11.741-11.258-11.741" transform="translate(-891.638 281.72)" fill="url(#linear-gradient-3)"/>
        </g>
      </g>
      <path id="path356" d="M891.21-239.547H821.1v-4.019H891.21v4.019" transform="translate(-741.937 -330.354)" fill="#d3d2d2"/>
      <path id="path358" d="M828.42-240.141h-.459V-242h.459v1.863" transform="translate(-744.586 -330.957)" fill="#231f20"/>
      <path id="path360" d="M826.924-239.951h-.459v-1.56h.459v1.56" transform="translate(-744.009 -331.147)" fill="#231f20"/>
      <path id="path362" d="M825.428-239.618h-.459v-1.031h.459v1.031" transform="translate(-743.432 -331.48)" fill="#231f20"/>
      <path id="path364" d="M824.1-239.294h-.459v-.516h.459v.516" transform="translate(-742.92 -331.804)" fill="#231f20"/>
      <path id="path366" d="M873.125-241.727h-.006l-.311.169-.047-.186.391-.21h.207v1.8h-.234v-1.575" transform="translate(-761.879 -330.977)" fill="#231f20"/>
      <path id="path368" d="M874.8-240.172v-.15l.19-.186c.457-.438.663-.671.666-.942a.32.32,0,0,0-.354-.352.606.606,0,0,0-.38.152l-.077-.172a.779.779,0,0,1,.506-.183.5.5,0,0,1,.548.524c0,.333-.239.6-.616.968l-.143.133v0h.8v.2H874.8" transform="translate(-762.665 -330.957)" fill="#231f20"/>
      <path id="path370" d="M877.13-239.975a.163.163,0,0,1,.165-.174.163.163,0,0,1,.162.174.161.161,0,0,1-.165.172A.162.162,0,0,1,877.13-239.975Zm0-.978a.164.164,0,0,1,.165-.175.163.163,0,0,1,.162.175.161.161,0,0,1-.165.172.162.162,0,0,1-.162-.172" transform="translate(-763.565 -331.295)" fill="#231f20"/>
      <path id="path372" d="M878.228-241.065c0,.469.143.735.364.735.247,0,.366-.291.366-.752,0-.444-.113-.734-.363-.734C878.382-241.816,878.228-241.555,878.228-241.065Zm.972-.028c0,.613-.226.951-.622.951-.35,0-.586-.33-.592-.926s.259-.937.622-.937.592.339.592.912" transform="translate(-763.896 -330.957)" fill="#231f20"/>
      <path id="path374" d="M880.529-241.065c0,.469.143.735.364.735.248,0,.366-.291.366-.752,0-.444-.113-.734-.363-.734C880.683-241.816,880.529-241.555,880.529-241.065Zm.972-.028c0,.613-.226.951-.622.951-.35,0-.586-.33-.591-.926s.259-.937.621-.937.592.339.592.912" transform="translate(-764.784 -330.957)" fill="#231f20"/>
      <path id="path376" d="M927.286-240.141h-2.632V-242h2.632v1.863" transform="translate(-781.909 -330.957)" fill="#231f20"/>
      <path id="path378" d="M931.266-240.141h-.681V-242h.681v1.863" transform="translate(-784.198 -330.957)" fill="#231f20"/>
      <path id="path380" d="M931.82-240.356h-.681v-.709h.681v.709" transform="translate(-784.413 -331.32)" fill="#231f20"/>
      <path id="path382" d="M929.9-240.141h-.681V-242h.681v1.863" transform="translate(-783.672 -330.957)" fill="#231f20"/>
      <path id="path384" d="M879.771-258.959c0,.438-.482.8-1.071.8h-9.93c-.589,0-1.07-.359-1.07-.8s.481-.8,1.07-.8h9.93c.589,0,1.071.359,1.071.8" transform="translate(-759.926 -324.105)" fill="#2c2c2e"/>
      <path id="path386" d="M877.8-27.22h-.66V-27.6h.66v.379" transform="translate(-763.57 -413.716)" fill="#2c2c2e"/>
      <path id="path388" d="M877.8-29.044h-.66v-2.643h.66v2.643" transform="translate(-763.57 -412.138)" fill="#43454a"/>
      <path id="path390" d="M877.139-30.086v.34a2.836,2.836,0,0,1,1.4,2.444,2.826,2.826,0,0,1-2.812,2.833,2.825,2.825,0,0,1-2.811-2.833,2.835,2.835,0,0,1,1.4-2.444v-.34a3.133,3.133,0,0,0-1.695,2.784,3.123,3.123,0,0,0,3.108,3.131,3.123,3.123,0,0,0,3.108-3.131,3.133,3.133,0,0,0-1.695-2.784" transform="translate(-761.824 -412.756)" fill="#2c2c2e"/>
      <path id="path392" d="M877.027-30.411v.35a3,3,0,0,1,1.56,2.634,2.987,2.987,0,0,1-2.973,2.995,2.987,2.987,0,0,1-2.973-2.995,3,3,0,0,1,1.56-2.634v-.35a3.313,3.313,0,0,0-1.872,2.983,3.3,3.3,0,0,0,3.285,3.31,3.3,3.3,0,0,0,3.286-3.31,3.313,3.313,0,0,0-1.873-2.983" transform="translate(-761.712 -412.631)" fill="#43454a"/>
      <path id="path394" d="M906.661-27.353V-28.74l-1.248.675Z" transform="translate(-774.483 -413.276)" fill="#2c2c2e"/>
      <path id="path396" d="M908.469-28.028h-1.556v.316h1.556a1.338,1.338,0,0,1,0,2.676h-2.011v.315h2.011a1.654,1.654,0,0,0,0-3.308" transform="translate(-774.886 -413.55)" fill="#43454a"/>
      <path id="path398" d="M908.469-27.641h-1.556v.157h1.556a1.259,1.259,0,1,1,0,2.518h-2.011v.158h2.011a1.417,1.417,0,1,0,0-2.833" transform="translate(-774.886 -413.7)" fill="#2c2c2e"/>
      <path id="path400" d="M906.737-27.532V-28.74l-1.128.6Z" transform="translate(-774.558 -413.276)" fill="#43454a"/>
      <path id="path402" d="M847.256-27.724h-4.4v-.437h4.4v.437" transform="translate(-750.335 -413.499)" fill="#43454a"/>
      <path id="path404" d="M847.256-27.475h-4.4v-.2h4.4v.2" transform="translate(-750.335 -413.687)" fill="#2c2c2e"/>
      <path id="path406" d="M847.256-25.459h-4.4V-25.9h4.4v.437" transform="translate(-750.335 -414.373)" fill="#43454a"/>
      <path id="path408" d="M847.256-25.209h-4.4v-.2h4.4v.2" transform="translate(-750.335 -414.561)" fill="#2c2c2e"/>
      <path id="path410" d="M847.256-23.194h-4.4v-.437h4.4v.437" transform="translate(-750.335 -415.248)" fill="#43454a"/>
      <path id="path412" d="M847.256-22.944h-4.4v-.2h4.4v.2" transform="translate(-750.335 -415.436)" fill="#2c2c2e"/>
    </g>
  </g>
</svg>
